<?xml version="1.0" encoding="UTF-8"?>
<svg xmlns:xlink="http://www.w3.org/1999/xlink"
     height="24px"
     version="1.1"
     viewBox="0 0 24 24"
     width="24px"
     xmlns="http://www.w3.org/2000/svg">
    <g
        fill="none"
        fill-rule="evenodd"
        id="canvas"
        opacity="0.86"
        stroke="none"
        stroke-width="1">
        <g
            fill="#FFFFFF"
            id="ic/public/add"
            transform="translate(3.000000, 3.000000)">
            <path
                d="M10,17 C10,17.5522847 9.55228475,18 9,18 C8.44771525,18 8,17.5522847 8,17 L8,10 L1,10 C0.44771525,10 6.76353751e-17,9.55228475 0,9 C-6.76353751e-17,8.44771525 0.44771525,8 1,8 L8,8 L8,1 C8,0.44771525 8.44771525,1.01453063e-16 9,0 C9.55228475,-1.01453063e-16 10,0.44771525 10,1 L10,17 Z M17,8 C17.5522847,8 18,8.44771525 18,9 C18,9.55228475 17.5522847,10 17,10 L11,10 L11,8 L17,8 Z"
                id="shapeCombination">
            </path>
        </g>
    </g>
    <title>canvas</title>
</svg>