<?xml version="1.0" encoding="UTF-8"?>
<svg xmlns:xlink="http://www.w3.org/1999/xlink"
     height="24px"
     version="1.1"
     viewBox="0 0 24 24"
     width="24px"
     xmlns="http://www.w3.org/2000/svg">
    <defs>
        <path
            d="M11.9722761,10.7597735 L14.330853,13.0864823 C14.5929957,13.3450262 14.5959131,13.7671261 14.3373807,14.0292803 C14.0866599,14.2834678 13.682157,14.2939141 13.4188455,14.0585688 L13.3945827,14.035785 L11.0594633,11.7325752 C11.3984335,11.4432987 11.7047976,11.1169383 11.9722761,10.7597735 Z M7.16666667,1.83333333 C10.1121853,1.83333333 12.5,4.221148 12.5,7.16666667 C12.5,10.1121853 10.1121853,12.5 7.16666667,12.5 C4.221148,12.5 1.83333333,10.1121853 1.83333333,7.16666667 C1.83333333,4.221148 4.221148,1.83333333 7.16666667,1.83333333 Z M7.16666667,3.16666667 C4.95752767,3.16666667 3.16666667,4.95752767 3.16666667,7.16666667 C3.16666667,9.37580567 4.95752767,11.1666667 7.16666667,11.1666667 C9.37580567,11.1666667 11.1666667,9.37580567 11.1666667,7.16666667 C11.1666667,4.95752767 9.37580567,3.16666667 7.16666667,3.16666667 Z"
            id="path-1">
        </path>
    </defs>
    <g
        fill="none"
        fill-rule="evenodd"
        id="canvas"
        opacity="0.600000024"
        stroke="none"
        stroke-width="1">
        <g
            id="public/ic_search"
            transform="translate(4.000000, 4.000000)">
            <g id="symbol/frame/symbol_grid24-copy">
            </g>
            <mask
                fill="white"
                id="mask-2">
                <use xlink:href="#path-1">
                </use>
            </mask>
            <rect
                fill="#FFFFFF"
                height="16"
                id="color/#000000"
                mask="url(#mask-2)"
                opacity="0.86"
                width="16"
                x="0"
                y="0">
            </rect>
            <use
                fill="#000000"
                fill-rule="nonzero"
                id="shapeCombination"
                xlink:href="#path-1">
            </use>
        </g>
    </g>
    <title>canvas</title>
</svg>